# xmcd
#
# Track frame offsets:
#	150
#	9104
#	27433
#	41395
#	52116
#	65169
#	81261
#	93565
#	109008
#	121816
#	133366
#	142227
#	151780
#	159733
#	173562
#	182857
#	194785
#	207466
#
# Disc length: 2833 seconds
#
# Revision: 0
# Processed by: cddbd v1.4PL0 Copyright (c) Steve Scherf et al.
# Submitted via: dBpowerAMP V4.0
#
DISCID=080b0f12
DTITLE=Torello's Jive Bugs - Fools Never Change
DYEAR=1900
DGENRE=Blues
TTITLE0=Hey baba rebob
TTITLE1=What's cookin'
TTITLE2=Money can't buy love
TTITLE3=Ella Mae
TTITLE4=Morning noon and night
TTITLE5=Feelin' happy
TTITLE6=Boodie green
TTITLE7=Walkin' the chalkline
TTITLE8=Don't you know
TTITLE9=Last laugh
TTITLE10=Hide and seek
TTITLE11=Yo yo baby
TTITLE12=Was it something I said
TTITLE13=Bradshaw boogie
TTITLE14=Well now dig this
TTITLE15=Red light green light
TTITLE16=I hate to sleep alone
TTITLE17=Flintstone tune
EXTD=
EXTT0=
EXTT1=
EXTT2=
EXTT3=
EXTT4=
EXTT5=
EXTT6=
EXTT7=
EXTT8=
EXTT9=
EXTT10=
EXTT11=
EXTT12=
EXTT13=
EXTT14=
EXTT15=
EXTT16=
EXTT17=
PLAYORDER=
